# xmcd CD database file
# Copyright (C) 1995-1998 Ti Kan
#
# Track frame offsets:
#	150
#	21907
#	38530
#	61862
#	84562
#	103779
#	120512
#	142600
#	164500
#	179547
#	199845
#	221297
#
# Disc length: 3198 seconds
#
# Revision: 2
# Processed by: cddbd v1.4b42PL1 Copyright (c) Steve Scherf et al.
# Submitted via: CDex 1.30Release
#
DISCID=9a0c7c0c
DTITLE=Ester Brohus - Happy To Be Lonely
DYEAR=1998
DGENRE=Country
TTITLE0=Happy To Be Lonely
TTITLE1=If You Don't Love Me
TTITLE2=Love Crazy Love
TTITLE3=What Came Over You
TTITLE4=We Shall Overcome
TTITLE5=Mirrorball
TTITLE6=Flowers In December
TTITLE7=Rainfall
TTITLE8=Wrapped In Blue
TTITLE9=When It Falls Apart
TTITLE10=Cryin' Without Tears
TTITLE11=Love Don't Come Easy
EXTD=YEAR: 1998 ID3G:   2
EXTT0=
EXTT1=
EXTT2=
EXTT3=
EXTT4=
EXTT5=
EXTT6=
EXTT7=
EXTT8=
EXTT9=
EXTT10=
EXTT11=
PLAYORDER=
